<svg width="73" height="58" viewBox="0 0 73 58" fill="none" xmlns="http://www.w3.org/2000/svg">
<path d="M25.4 57.96C20.2267 57.96 15.8 56.76 12.12 54.36C8.44 51.9067 5.58667 48.52 3.56 44.2C1.58667 39.8267 0.6 34.76 0.6 29C0.6 23.2933 1.58667 18.2533 3.56 13.88C5.58667 9.50666 8.44 6.12 12.12 3.72C15.8 1.26667 20.2267 0.039999 25.4 0.039999C30.5733 0.039999 35 1.26667 38.68 3.72C42.36 6.12 45.1867 9.50666 47.16 13.88C49.1867 18.2533 50.2 23.2933 50.2 29C50.2 34.76 49.1867 39.8267 47.16 44.2C45.1867 48.52 42.36 51.9067 38.68 54.36C35 56.76 30.5733 57.96 25.4 57.96ZM25.4 48.76C29.6133 48.76 33.0533 47 35.72 43.48C38.3867 39.96 39.72 35.1333 39.72 29C39.72 22.8667 38.3867 18.04 35.72 14.52C33.0533 11 29.6133 9.24 25.4 9.24C21.1333 9.24 17.6667 11 15 14.52C12.3867 18.04 11.08 22.8667 11.08 29C11.08 35.1333 12.3867 39.96 15 43.48C17.6667 47 21.1333 48.76 25.4 48.76ZM62.1169 57V12.68L52.9169 14.84V7L66.4369 0.999996H72.7569V57H62.1169Z" fill="#E9ECF2"/>
</svg>
