<svg width="93" height="58" viewBox="0 0 93 58" fill="none" xmlns="http://www.w3.org/2000/svg">
<path d="M25.4453 57.96C20.272 57.96 15.8453 56.76 12.1653 54.36C8.48531 51.9067 5.63198 48.52 3.60531 44.2C1.63198 39.8267 0.645311 34.76 0.645311 29C0.645311 23.2933 1.63198 18.2533 3.60531 13.88C5.63198 9.50666 8.48531 6.12 12.1653 3.72C15.8453 1.26667 20.272 0.039999 25.4453 0.039999C30.6186 0.039999 35.0453 1.26667 38.7253 3.72C42.4053 6.12 45.232 9.50666 47.2053 13.88C49.232 18.2533 50.2453 23.2933 50.2453 29C50.2453 34.76 49.232 39.8267 47.2053 44.2C45.232 48.52 42.4053 51.9067 38.7253 54.36C35.0453 56.76 30.6186 57.96 25.4453 57.96ZM25.4453 48.76C29.6586 48.76 33.0986 47 35.7653 43.48C38.432 39.96 39.7653 35.1333 39.7653 29C39.7653 22.8667 38.432 18.04 35.7653 14.52C33.0986 11 29.6586 9.24 25.4453 9.24C21.1786 9.24 17.712 11 15.0453 14.52C12.432 18.04 11.1253 22.8667 11.1253 29C11.1253 35.1333 12.432 39.96 15.0453 43.48C17.712 47 21.1786 48.76 25.4453 48.76ZM54.3316 57V49.56C57.7449 46.7333 61.0516 43.9333 64.2516 41.16C67.5049 38.3867 70.3849 35.64 72.8916 32.92C75.4516 30.2 77.4782 27.56 78.9716 25C80.5182 22.3867 81.2916 19.8533 81.2916 17.4C81.2916 15.1067 80.6516 13.08 79.3716 11.32C78.1449 9.56 76.0916 8.68 73.2116 8.68C70.2782 8.68 68.0649 9.64 66.5716 11.56C65.0782 13.48 64.3316 15.8 64.3316 18.52H54.4116C54.5182 14.4133 55.4249 11 57.1316 8.28C58.8382 5.50667 61.1049 3.45333 63.9316 2.12C66.7582 0.733331 69.9316 0.039999 73.4516 0.039999C79.1582 0.039999 83.5849 1.61333 86.7316 4.76C89.9316 7.85333 91.5316 11.88 91.5316 16.84C91.5316 19.9333 90.8116 22.9467 89.3716 25.88C87.9849 28.8133 86.1449 31.64 83.8516 34.36C81.5582 37.08 79.0782 39.64 76.4116 42.04C73.7449 44.3867 71.1582 46.5733 68.6516 48.6H92.8916V57H54.3316Z" fill="#E9ECF2"/>
</svg>
