<svg width="94" height="58" viewBox="0 0 94 58" fill="none" xmlns="http://www.w3.org/2000/svg">
<path d="M25.4 57.96C20.2267 57.96 15.8 56.76 12.12 54.36C8.44 51.9067 5.58667 48.52 3.56 44.2C1.58667 39.8267 0.6 34.76 0.6 29C0.6 23.2933 1.58667 18.2533 3.56 13.88C5.58667 9.50666 8.44 6.12 12.12 3.72C15.8 1.26667 20.2267 0.039999 25.4 0.039999C30.5733 0.039999 35 1.26667 38.68 3.72C42.36 6.12 45.1867 9.50666 47.16 13.88C49.1867 18.2533 50.2 23.2933 50.2 29C50.2 34.76 49.1867 39.8267 47.16 44.2C45.1867 48.52 42.36 51.9067 38.68 54.36C35 56.76 30.5733 57.96 25.4 57.96ZM25.4 48.76C29.6133 48.76 33.0533 47 35.72 43.48C38.3867 39.96 39.72 35.1333 39.72 29C39.72 22.8667 38.3867 18.04 35.72 14.52C33.0533 11 29.6133 9.24 25.4 9.24C21.1333 9.24 17.6667 11 15 14.52C12.3867 18.04 11.08 22.8667 11.08 29C11.08 35.1333 12.3867 39.96 15 43.48C17.6667 47 21.1333 48.76 25.4 48.76ZM74.3569 57.96C70.6769 57.96 67.3435 57.32 64.3569 56.04C61.3702 54.7067 58.9702 52.68 57.1569 49.96C55.3435 47.24 54.3835 43.8267 54.2769 39.72H64.3569C64.4102 42.44 65.2902 44.7333 66.9969 46.6C68.7569 48.4133 71.2102 49.32 74.3569 49.32C77.3435 49.32 79.6369 48.4933 81.2369 46.84C82.8369 45.1867 83.6369 43.1067 83.6369 40.6C83.6369 37.6667 82.5702 35.4533 80.4369 33.96C78.3569 32.4133 75.6635 31.64 72.3569 31.64H68.1969V23.24H72.4369C75.1569 23.24 77.4235 22.6 79.2369 21.32C81.0502 20.04 81.9569 18.1467 81.9569 15.64C81.9569 13.56 81.2635 11.9067 79.8769 10.68C78.5435 9.4 76.6769 8.76 74.2769 8.76C71.6635 8.76 69.6102 9.53333 68.1169 11.08C66.6769 12.6267 65.8769 14.52 65.7169 16.76H55.7169C55.9302 11.5867 57.7169 7.50666 61.0769 4.52C64.4902 1.53333 68.8902 0.039999 74.2769 0.039999C78.1169 0.039999 81.3435 0.733331 83.9569 2.12C86.6235 3.45333 88.6235 5.24 89.9569 7.48C91.3435 9.72 92.0369 12.2 92.0369 14.92C92.0369 18.0667 91.1569 20.7333 89.3969 22.92C87.6902 25.0533 85.5569 26.4933 82.9969 27.24C86.1435 27.88 88.7035 29.4267 90.6769 31.88C92.6502 34.28 93.6369 37.32 93.6369 41C93.6369 44.0933 92.8902 46.92 91.3969 49.48C89.9035 52.04 87.7169 54.0933 84.8369 55.64C82.0102 57.1867 78.5169 57.96 74.3569 57.96Z" fill="#E9ECF2"/>
</svg>
